# xmcd
#
# Track frame offsets:
#	150
#	11449
#	27057
#	39036
#	52156
#	65512
#	78458
#	91896
#	112126
#	133375
#	143556
#	163181
#	165675
#	177188
#	189416
#	201879
#	214513
#	224537
#	239667
#	247926
#
# Disc length: 3515
#
# Revision: 1
# Processed by: cddbd v1.5.1PL0 Copyright (c) Steve Scherf et al.
# Submitted via: MusicManager v6.0.0.0
# Normalized: r0:DSETVAR1
#
DISCID=1c0db914
DTITLE=Various Artist - Grand Ole Opry AFRS Disc
DYEAR=1900
DGENRE=country
TTITLE0=Roy Acuff - Intro/Sunshine Special
TTITLE1=T. Tommy Cutrer/Roy Acuff/Jordaniares - Pet Milk Ad/Band Introduction/He's Got the Whole World in His Hands
TTITLE2=T. Tommy Cutrer/Howard Forrester - Pet Milk Ad/Snowflake Reel
TTITLE3=Melba Montgomery - Have I Told You Lately That I Love You
TTITLE4=Bashful Brother Oswald - I'm on My Long Journey Home
TTITLE5=T. Tommy Cutrer/Howard Forester - Pet Milk Ad/Cowbell Polka
TTITLE6=Jordanaires - How Great Thou Art
TTITLE7=T. Tommy Cutrer/Roy Acuff and Melba Montgomery - Pet Milk Ad/Before I Met You
TTITLE8=T. Tommy Cutrer/Roy Acuff - Pet Milk Ad/I Saw the Light
TTITLE9=Johnnie and Jack - Intro/Down South in New Orleans
TTITLE10=T. Tommy Cutrer/The Jordanaires - Pet Milk Ad/Introductions/I'd Rather Have Jesus
TTITLE11=Opry Band - Sally Ann
TTITLE12=Kitty Wells - I Can't Tell My Heart That
TTITLE13=T. Tommy Cutrer/Johnnie and Jack - Pet Milk Ad/I'm Always By Myself When I'm Alone
TTITLE14=T. Tommy Cutrer/Tennessee Mountain Boys - Pet Milk Ad/Snow Dear
TTITLE15=T. Tommy Cutrer - Beauty Pageant Winners
TTITLE16=The Jordanaires - Sugaree
TTITLE17=T. Tommy Cutrer/Kitty Wells - Pet Milk Ad/Heartbreak USA
TTITLE18=T. Tommy Cutrer/Marvin Hughes - Pet Milk Ad/Ain't She Sweet
TTITLE19=Johnnie and Jack - Poison Love/Outro
EXTD=
EXTT0=
EXTT1=
EXTT2=
EXTT3=
EXTT4=
EXTT5=
EXTT6=
EXTT7=
EXTT8=
EXTT9=
EXTT10=
EXTT11=
EXTT12=
EXTT13=
EXTT14=
EXTT15=
EXTT16=
EXTT17=
EXTT18=
EXTT19=
PLAYORDER=
